#N canvas 141 34 440 631 12;
#X obj 28 30 cnv 15 250 370 something background empty 20 12 0 14 #df9687 #fcfcfc 0;
#X text 99 66 play a random chord;
#X text 99 127 stop the sound;
#X obj 59 61 bng 30 250 50 0 chord chordr empty 17 7 0 10 #ffffff #000000 #000000;
#X obj 60 122 bng 30 250 50 0 off offr empty 17 7 0 10 #ffffff #000000 #000000;
#N canvas 53 25 1387 847 randchord 0;
#X obj 212 118 bng 15 250 50 0 empty empty empty 17 7 0 10 #fcfcfc #000000 #000000;
#X obj 155 584 mtof;
#X obj 277 584 mtof;
#X obj 403 582 mtof;
#X obj 538 580 mtof;
#X obj 298 909 *~ 0.1;
#X msg 653 471 0;
#X obj 652 578 mtof;
#X obj 151 658 phasor~;
#X obj 152 689 expr~ $v1 * 2 - 1;
#X obj 281 655 phasor~;
#X obj 282 686 expr~ $v1 * 2 - 1;
#X obj 411 655 phasor~;
#X obj 410 691 expr~ $v1 * 2 - 1;
#X obj 546 650 phasor~;
#X obj 547 681 expr~ $v1 * 2 - 1;
#X obj 701 652 phasor~;
#X obj 702 683 expr~ $v1 * 2 - 1;
#X obj 297 812 vcf~, f 22;
#X floatatom 460 778 5 0 0 0 - - - 0;
#X obj 97 752 line~;
#X obj 87 674 *;
#X obj 59 267 / 25;
#N canvas -8 0 1920 976 chorus~ 0;
#X obj 140 97 inlet~;
#X obj 203 647 outlet~;
#X obj 140 200 delwrite~ \$0-buffer 100;
#X obj 137 502 delread4~ \$0-buffer;
#X obj 342 498 delread4~ \$0-buffer;
#X obj 204 589 *~ 0.5;
#X obj 342 366 expr~ ($v1 + 1) / 2;
#X obj 587 653 outlet~;
#X obj 519 493 delread4~ \$0-buffer;
#X obj 724 489 delread4~ \$0-buffer;
#X obj 586 580 *~ 0.5;
#X obj 724 357 expr~ ($v1 + 1) / 2;
#X obj 341 448 +~ 5;
#X obj 343 319 osc~ 0.5;
#X obj 723 439 +~ 6;
#X obj 725 310 osc~ 0.4;
#X obj 341 410 *~ 5;
#X obj 723 401 *~ 5;
#X connect 0 0 2 0;
#X connect 3 0 5 0;
#X connect 4 0 5 0;
#X connect 5 0 1 0;
#X connect 6 0 16 0;
#X connect 8 0 10 0;
#X connect 9 0 10 0;
#X connect 10 0 7 0;
#X connect 11 0 17 0;
#X connect 12 0 4 0;
#X connect 13 0 6 0;
#X connect 14 0 9 0;
#X connect 15 0 11 0;
#X connect 16 0 12 0;
#X connect 17 0 14 0;
#X restore 297 950 pd chorus~;
#X obj 305 1010 dac~;
#X obj 669 837 line;
#X obj 974 487 vline~;
#X msg 867 358 1;
#X msg 974 463 \$1 10;
#X obj 388 153 r chord;
#X obj 834 236 r off;
#X obj 297 871 *~;
#X obj 678 177 loadbang;
#X msg 1062 678 0;
#X obj 1317 390 vsl 15 128 0 255 0 0 empty empty empty 0 -9 0 10 #0800fc #fcfcfc #000000 0 1;
#X obj 1324 535 t b f;
#X obj 1296 390 vsl 15 128 0 255 0 0 empty empty empty 0 -9 0 10 #00fc00 #000000 #000000 0 1;
#X obj 1276 390 vsl 15 128 0 255 0 0 empty empty empty 0 -9 0 10 #fc0000 #000000 #000000 0 1;
#X obj 1296 560 t b f;
#X obj 1436 567 makefilename %02x;
#X obj 1356 594 makefilename %02x;
#X obj 1276 631 makefilename %02x;
#X msg 1276 690 symbol #\$1\$2\$3;
#X obj 1276 661 pack symbol symbol symbol;
#X obj 1276 748 s background;
#X msg 1276 714 color \$1;
#N canvas 286 286 2560 1349 simplechord 0;
#X obj 295 708 +;
#X obj 167 704 +;
#X floatatom 394 768 5 0 0 0 - - - 0;
#X floatatom 309 770 5 0 0 0 - - - 0;
#X floatatom 235 769 5 0 0 0 - - - 0;
#X floatatom 168 768 5 0 0 0 - - - 0;
#X obj 375 670 + 48;
#X floatatom 470 764 5 0 0 0 - - - 0;
#X obj 471 720 - 12;
#X obj 295 673 + 3;
#X obj 167 671 + 3;
#X obj 221 706 + 7;
#X obj 154 134 t b b b;
#X obj 154 67 bng 15 250 50 0 empty empty empty 17 7 0 10 #fcfcfc #000000 #000000;
#X obj 262 855 pack f f f f f;
#X obj 156 26 inlet;
#X obj 311 915 outlet;
#X obj 559 408 snapshot~;
#X floatatom 559 432 5 0 0 0 - - - 0;
#X floatatom 559 484 5 0 0 0 - - - 0;
#X obj 559 507 int;
#X floatatom 559 531 5 0 0 0 - - - 0;
#X obj 559 460 * 12;
#X obj 559 384 phasor~ 1;
#X obj 559 325 osc~ 0.1;
#X obj 559 349 +~ 1.5;
#X obj 368 416 snapshot~;
#X floatatom 368 440 5 0 0 0 - - - 0;
#X floatatom 368 492 5 0 0 0 - - - 0;
#X obj 368 515 int;
#X floatatom 368 539 5 0 0 0 - - - 0;
#X obj 368 392 phasor~ 1;
#X obj 368 468 * 2;
#X obj 368 357 +~ 1.6;
#X obj 368 333 osc~ 0.2;
#X obj 277 416 snapshot~;
#X floatatom 277 440 5 0 0 0 - - - 0;
#X floatatom 277 492 5 0 0 0 - - - 0;
#X obj 277 515 int;
#X floatatom 277 539 5 0 0 0 - - - 0;
#X obj 277 392 phasor~ 1;
#X obj 277 468 * 2;
#X obj 277 357 +~ 1.4;
#X obj 277 333 osc~ 0.15;
#X connect 0 0 3 0;
#X connect 1 0 5 0;
#X connect 2 0 14 3;
#X connect 3 0 14 2;
#X connect 4 0 14 1;
#X connect 5 0 14 0;
#X connect 6 0 0 1;
#X connect 6 0 2 0;
#X connect 6 0 11 0;
#X connect 6 0 8 0;
#X connect 7 0 14 4;
#X connect 8 0 7 0;
#X connect 9 0 0 0;
#X connect 10 0 1 0;
#X connect 11 0 1 1;
#X connect 11 0 4 0;
#X connect 12 0 35 0;
#X connect 12 1 26 0;
#X connect 12 2 17 0;
#X connect 13 0 12 0;
#X connect 14 0 16 0;
#X connect 15 0 13 0;
#X connect 17 0 18 0;
#X connect 18 0 22 0;
#X connect 19 0 20 0;
#X connect 20 0 21 0;
#X connect 21 0 6 0;
#X connect 22 0 19 0;
#X connect 23 0 17 0;
#X connect 24 0 25 0;
#X connect 25 0 23 0;
#X connect 26 0 27 0;
#X connect 27 0 32 0;
#X connect 28 0 29 0;
#X connect 29 0 30 0;
#X connect 30 0 9 0;
#X connect 31 0 26 0;
#X connect 32 0 28 0;
#X connect 33 0 31 0;
#X connect 34 0 33 0;
#X connect 35 0 36 0;
#X connect 36 0 41 0;
#X connect 37 0 38 0;
#X connect 38 0 39 0;
#X connect 39 0 10 0;
#X connect 40 0 35 0;
#X connect 41 0 37 0;
#X connect 42 0 40 0;
#X connect 43 0 42 0;
#X restore 225 343 pd simplechord;
#N canvas 312 312 2560 1349 complexchord 0;
#X obj 202 606 + 2;
#X obj 202 641 +;
#X obj 128 605 + 2;
#X obj 128 639 +;
#X obj 47 215 random 3;
#X obj 48 604 + 2;
#X obj 48 637 +;
#X floatatom 301 701 5 0 0 0 - - - 0;
#X floatatom 216 703 5 0 0 0 - - - 0;
#X floatatom 142 702 5 0 0 0 - - - 0;
#X floatatom 49 701 5 0 0 0 - - - 0;
#X obj 282 603 + 48;
#X floatatom 429 697 5 0 0 0 - - - 0;
#X obj 430 653 - 12;
#X obj 156 792 pack f f f f f;
#X obj 165 65 bng 15 250 50 0 empty empty empty 17 7 0 10 #fcfcfc #000000 #000000;
#X obj 165 132 t b b b b;
#X obj 184 27 inlet;
#X obj 193 834 outlet;
#X obj 516 342 snapshot~;
#X floatatom 516 366 5 0 0 0 - - - 0;
#X floatatom 516 418 5 0 0 0 - - - 0;
#X obj 516 441 int;
#X floatatom 516 465 5 0 0 0 - - - 0;
#X obj 516 394 * 12;
#X obj 516 318 phasor~ 1;
#X obj 516 259 osc~ 0.1;
#X obj 516 283 +~ 1.5;
#X obj 325 350 snapshot~;
#X floatatom 325 374 5 0 0 0 - - - 0;
#X floatatom 325 426 5 0 0 0 - - - 0;
#X obj 325 449 int;
#X floatatom 325 473 5 0 0 0 - - - 0;
#X obj 325 326 phasor~ 1;
#X obj 325 291 +~ 1.6;
#X obj 325 267 osc~ 0.2;
#X obj 234 350 snapshot~;
#X floatatom 234 374 5 0 0 0 - - - 0;
#X floatatom 234 426 5 0 0 0 - - - 0;
#X obj 234 449 int;
#X floatatom 234 473 5 0 0 0 - - - 0;
#X obj 234 326 phasor~ 1;
#X obj 234 291 +~ 1.4;
#X obj 234 267 osc~ 0.15;
#X obj 234 402 * 3;
#X obj 325 402 * 3;
#X connect 0 0 1 0;
#X connect 1 0 3 1;
#X connect 1 0 8 0;
#X connect 2 0 3 0;
#X connect 3 0 6 1;
#X connect 3 0 9 0;
#X connect 4 0 5 0;
#X connect 5 0 6 0;
#X connect 6 0 10 0;
#X connect 7 0 14 3;
#X connect 8 0 14 2;
#X connect 9 0 14 1;
#X connect 10 0 14 0;
#X connect 11 0 1 1;
#X connect 11 0 7 0;
#X connect 11 0 13 0;
#X connect 12 0 14 4;
#X connect 13 0 12 0;
#X connect 14 0 18 0;
#X connect 15 0 16 0;
#X connect 16 0 4 0;
#X connect 16 1 36 0;
#X connect 16 2 28 0;
#X connect 16 3 19 0;
#X connect 17 0 15 0;
#X connect 19 0 20 0;
#X connect 20 0 24 0;
#X connect 21 0 22 0;
#X connect 22 0 23 0;
#X connect 23 0 11 0;
#X connect 24 0 21 0;
#X connect 25 0 19 0;
#X connect 26 0 27 0;
#X connect 27 0 25 0;
#X connect 28 0 29 0;
#X connect 29 0 45 0;
#X connect 30 0 31 0;
#X connect 31 0 32 0;
#X connect 32 0 0 0;
#X connect 33 0 28 0;
#X connect 34 0 33 0;
#X connect 35 0 34 0;
#X connect 36 0 37 0;
#X connect 37 0 44 0;
#X connect 38 0 39 0;
#X connect 39 0 40 0;
#X connect 40 0 2 0;
#X connect 41 0 36 0;
#X connect 42 0 41 0;
#X connect 43 0 42 0;
#X connect 44 0 38 0;
#X connect 45 0 30 0;
#X restore 340 344 pd complexchord;
#X obj 215 170 t b b;
#X obj 225 429 unpack f f f f f;
#X obj 247 296 bng 15 250 50 0 empty empty empty 17 7 0 10 #fcfcfc #000000 #000000;
#X obj 307 293 bng 15 250 50 0 empty empty empty 17 7 0 10 #fcfcfc #000000 #000000;
#X obj 307 216 r chordset;
#X msg 586 238 1;
#X obj 531 299 s chordsetr;
#N canvas 261 647 450 300 switch 0;
#X obj 111 77 inlet;
#X obj 255 73 inlet;
#X obj 110 219 spigot;
#X obj 206 221 spigot;
#X obj 110 277 outlet;
#X obj 206 277 outlet;
#X obj 245 188 tgl 15 0 empty empty empty 17 7 0 10 #fcfcfc #000000 #000000 0 1;
#X obj 149 189 tgl 15 0 empty empty empty 17 7 0 10 #fcfcfc #000000 #000000 0 1;
#X msg 216 148 1;
#X msg 254 148 0;
#X msg 297 148 0;
#X msg 337 148 1;
#X obj 255 111 sel 1;
#X connect 0 0 2 0;
#X connect 0 0 3 0;
#X connect 1 0 12 0;
#X connect 2 0 4 0;
#X connect 3 0 5 0;
#X connect 6 0 3 1;
#X connect 7 0 2 1;
#X connect 8 0 7 0;
#X connect 9 0 6 0;
#X connect 10 0 7 0;
#X connect 11 0 6 0;
#X connect 12 0 8 0;
#X connect 12 0 9 0;
#X connect 12 1 10 0;
#X connect 12 1 11 0;
#X restore 247 249 pd switch;
#X obj 59 239 + 25;
#X obj 59 215 random 50;
#X obj 292 83 metro;
#X obj 292 48 tgl 15 0 empty empty empty 17 7 0 10 #fcfcfc #000000 #000000 0 1;
#X obj 292 8 r metswitch;
#X obj 390 8 r mettime;
#X floatatom 371 45 5 0 0 0 - - - 0;
#X obj 651 337 s mettimer;
#X msg 651 308 2000;
#X msg 87 698 \$1 2000;
#X msg 659 783 \$1 2000;
#X obj 1276 234 random 256;
#X obj 1362 232 random 256;
#X msg 952 332 set 225;
#X msg 1050 287 225;
#X obj 784 579 mtof;
#X obj 833 653 phasor~;
#X obj 834 684 expr~ $v1 * 2 - 1;
#X obj 722 535 - 12;
#X obj 247 210 del 6;
#X obj 1479 283 snapshot~;
#X floatatom 1479 307 5 0 0 0 - - - 0;
#X floatatom 1479 359 5 0 0 0 - - - 0;
#X obj 1479 382 int;
#X floatatom 1479 406 5 0 0 0 - - - 0;
#X obj 1479 259 phasor~ 1;
#X obj 1479 200 osc~ 0.1;
#X obj 1479 224 +~ 1.5;
#X obj 1479 335 * 256;
#X connect 0 0 27 0;
#X connect 0 0 48 0;
#X connect 0 0 67 0;
#X connect 0 0 68 0;
#X connect 0 0 76 0;
#X connect 1 0 8 0;
#X connect 1 0 21 0;
#X connect 2 0 10 0;
#X connect 3 0 12 0;
#X connect 4 0 14 0;
#X connect 5 0 23 0;
#X connect 6 0 4 0;
#X connect 6 0 1 0;
#X connect 6 0 2 0;
#X connect 6 0 3 0;
#X connect 6 0 7 0;
#X connect 6 0 28 0;
#X connect 6 0 71 0;
#X connect 7 0 16 0;
#X connect 8 0 9 0;
#X connect 9 0 18 0;
#X connect 10 0 11 0;
#X connect 11 0 18 0;
#X connect 12 0 13 0;
#X connect 13 0 18 0;
#X connect 14 0 15 0;
#X connect 15 0 18 0;
#X connect 16 0 17 0;
#X connect 17 0 18 0;
#X connect 18 0 31 0;
#X connect 19 0 66 0;
#X connect 20 0 18 1;
#X connect 21 0 65 0;
#X connect 22 0 21 1;
#X connect 22 0 19 0;
#X connect 23 0 24 0;
#X connect 23 1 24 1;
#X connect 25 0 18 2;
#X connect 26 0 31 1;
#X connect 27 0 28 0;
#X connect 28 0 26 0;
#X connect 29 0 0 0;
#X connect 30 0 6 0;
#X connect 30 0 70 0;
#X connect 31 0 5 0;
#X connect 32 0 33 0;
#X connect 32 0 48 0;
#X connect 32 0 53 0;
#X connect 32 0 64 0;
#X connect 32 0 69 0;
#X connect 33 0 31 1;
#X connect 34 0 35 0;
#X connect 35 0 36 0;
#X connect 35 1 39 0;
#X connect 36 0 38 0;
#X connect 37 0 41 0;
#X connect 38 0 37 0;
#X connect 38 1 40 0;
#X connect 39 0 43 2;
#X connect 40 0 43 1;
#X connect 41 0 43 0;
#X connect 42 0 45 0;
#X connect 43 0 42 0;
#X connect 45 0 44 0;
#X connect 46 0 49 0;
#X connect 47 0 49 0;
#X connect 48 0 57 0;
#X connect 48 1 75 0;
#X connect 49 0 1 0;
#X connect 49 1 2 0;
#X connect 49 2 3 0;
#X connect 49 3 4 0;
#X connect 49 4 7 0;
#X connect 49 4 74 0;
#X connect 50 0 46 0;
#X connect 51 0 47 0;
#X connect 52 0 55 1;
#X connect 53 0 54 0;
#X connect 55 0 50 0;
#X connect 55 1 51 0;
#X connect 56 0 22 0;
#X connect 57 0 56 0;
#X connect 58 0 0 0;
#X connect 59 0 58 0;
#X connect 60 0 59 0;
#X connect 61 0 62 0;
#X connect 62 0 58 1;
#X connect 64 0 63 0;
#X connect 65 0 20 0;
#X connect 66 0 25 0;
#X connect 67 0 37 0;
#X connect 68 0 36 0;
#X connect 69 0 37 0;
#X connect 69 0 36 0;
#X connect 69 0 34 0;
#X connect 70 0 37 0;
#X connect 70 0 36 0;
#X connect 70 0 34 0;
#X connect 71 0 72 0;
#X connect 72 0 73 0;
#X connect 73 0 18 0;
#X connect 74 0 71 0;
#X connect 75 0 55 0;
#X connect 76 0 77 0;
#X connect 77 0 84 0;
#X connect 78 0 79 0;
#X connect 79 0 80 0;
#X connect 80 0 34 0;
#X connect 81 0 76 0;
#X connect 82 0 83 0;
#X connect 83 0 81 0;
#X connect 84 0 78 0;
#X restore 108 40 pd randchord;
#X obj 59 184 vradio 30 1 0 2 chordset chordsetr empty 0 -8 0 10 #fcfcfc #000000 #000000 0;
#X text 99 219 simple chords;
#X text 99 189 complex chords;
#X text 28 7 random chord generator;
#X text 101 280 auto mode;
#X obj 61 276 tgl 30 0 metswitch metswitchr empty 17 7 0 10 #fcfcfc #000000 #000000 0 1;
#X obj 62 334 hsl 190 30 2000 20000 0 0 mettime mettimer empty -2 -8 0 10 #fcfcfc #000000 #000000 0 1;
#X text 110 339 chord length;
#X text 169 406 nick syman 2024;
#X obj 330 142 notein;
#X obj 323 213 bng 19 250 50 0 empty empty empty 0 -10 0 12 #fcfcfc #000000 #000000;
#X obj 314 291 loadbang;
#X msg 318 345 \; pd dsp 1;
#X connect 15 0 16 0;
#X connect 16 0 3 0;
#X connect 17 0 18 0;
